<?xml version="1.0" encoding="iso-8859-1"?>
<!-- Generator: Adobe Illustrator 16.0.0, SVG Export Plug-In . SVG Version: 6.00 Build 0)  -->
<!DOCTYPE svg PUBLIC "-//W3C//DTD SVG 1.1//EN" "http://www.w3.org/Graphics/SVG/1.1/DTD/svg11.dtd">
<svg version="1.1" id="Capa_1" xmlns="http://www.w3.org/2000/svg" xmlns:xlink="http://www.w3.org/1999/xlink" x="0px" y="0px"
	 width="554.625px" height="554.625px" viewBox="0 0 554.625 554.625" style="enable-background:new 0 0 554.625 554.625;"
	 xml:space="preserve">
<g>
	<g>
		<path d="M191.25,114.75h172.125c9.562,0,19.125-7.65,19.125-19.125V76.5c0-11.475-7.65-19.125-19.125-19.125h-38.25V38.25
			c0-21.038-17.213-38.25-38.25-38.25H267.75c-21.038,0-38.25,17.212-38.25,38.25v19.125h-38.25c-9.562,0-19.125,7.65-19.125,19.125
			v19.125C172.125,107.1,179.775,114.75,191.25,114.75z M277.312,38.25c5.737,0,9.562,3.825,9.562,9.562s-3.825,9.562-9.562,9.562
			s-9.562-3.825-9.562-9.562S271.575,38.25,277.312,38.25z"/>
		<path d="M420.75,76.5h-19.125l0,0v19.125c0,21.038-17.213,38.25-38.25,38.25H191.25c-21.038,0-38.25-17.212-38.25-38.25V76.5l0,0
			h-19.125c-21.038,0-38.25,17.212-38.25,38.25v401.625c0,21.037,17.212,38.25,38.25,38.25H420.75
			c21.037,0,38.25-17.213,38.25-38.25V114.75C459,93.712,441.787,76.5,420.75,76.5z M258.188,426.487L244.8,439.875l-34.425-34.425
			l-34.425,34.425l-13.388-13.388l34.425-34.425l-34.425-34.425l13.388-13.388l34.425,34.425L244.8,344.25l13.388,13.388
			l-34.425,34.425L258.188,426.487z M353.812,516.375c-26.775,0-47.812-21.037-47.812-47.812c0-22.95,17.213-42.075,38.25-47.812
			v-43.987l-153-153v63.112h-19.125V191.25h95.625v19.125h-63.112l158.737,160.65v49.725c21.037,3.825,38.25,22.95,38.25,47.812
			C401.625,495.338,380.588,516.375,353.812,516.375z M411.188,273.487L397.8,286.875l-34.425-34.425l-34.425,34.425l-13.388-13.388
			l34.425-34.425l-34.425-34.425l13.388-13.388l34.425,34.425L397.8,191.25l13.388,13.388l-34.425,34.425L411.188,273.487z"/>
		<circle cx="353.812" cy="468.562" r="28.688"/>
	</g>
</g>
<g>
</g>
<g>
</g>
<g>
</g>
<g>
</g>
<g>
</g>
<g>
</g>
<g>
</g>
<g>
</g>
<g>
</g>
<g>
</g>
<g>
</g>
<g>
</g>
<g>
</g>
<g>
</g>
<g>
</g>
</svg>
